<?xml version="1.0" encoding="utf-8"?>
<!-- Generator: Adobe Illustrator 24.1.1, SVG Export Plug-In . SVG Version: 6.00 Build 0)  -->
<svg version="1.1" id="Layer_1" xmlns="http://www.w3.org/2000/svg" xmlns:xlink="http://www.w3.org/1999/xlink" x="0px" y="0px"
	 viewBox="0 0 512 512" style="enable-background:new 0 0 512 512;" xml:space="preserve">
<g>
	<path d="M438.4,125.5v26.1H75.1v-26.1c0-7.7,2.3-13.7,6.8-18.3s8.9-7.1,13-7.8h6.3h311.1c2.1,0,4.5,0.2,7.3,0.5
		c2.8,0.3,6.6,2.8,11.5,7.3C436,111.8,438.4,117.8,438.4,125.5 M361.1,47.2c2.1,0,4.5,0.2,7.3,0.5s6.6,2.8,11.5,7.3
		c4.9,4.5,7.3,10.6,7.3,18.3H127.3c0-7.7,2.3-13.7,6.8-18.3s8.9-7.1,13-7.8h6.3H361.1 M490.6,151.6c11.8,11.1,18.4,19.1,19.8,24
		c2.1,6.3,2.1,15.7,0,28.2l-39.7,234.9c-1.4,7.7-4.9,13.7-10.4,18.3c-5.6,4.5-10.4,7.1-14.6,7.8h-7.3H75.1
		c-18.1,0-28.5-8.7-31.3-26.1c-2.1-9-8.9-47.8-20.4-116.4S5.2,214.2,3.1,203.8c-3.5-7.7-4-15.3-1.6-23c2.4-7.7,4.2-12.2,5.2-13.6
		c1-1.4,4.7-4.9,11-10.4l5.2-5.2l15.7-15.7v41.8h436.4v-41.8L490.6,151.6 M361.1,292.5v-52.2h-36.5v41.8H188.9v-41.8h-35.5v52.2
		c0,17.4,8.4,26.1,25.1,26.1H335c7.7,0,13.7-2.1,18.3-6.3c4.5-4.2,6.8-8.4,6.8-12.5L361.1,292.5"/>
</g>
</svg>
