<?xml version="1.0" encoding="UTF-8"?><svg id="uuid-5f92b56f-9160-419a-a2da-b7e7d32987b6" xmlns="http://www.w3.org/2000/svg" viewBox="0 0 42.32 42.32"><defs><style>.uuid-c73c254c-cab5-492d-ab57-86e3f0808c88{fill:#fff;}</style></defs><g id="uuid-7b5b8ca0-b3df-4d05-a63d-0a09c5850346"><path class="uuid-c73c254c-cab5-492d-ab57-86e3f0808c88" d="M21.84,42.08l6.5-5.17c.81-.65,.36-1.95-.68-1.95H14.65c-1.04,0-1.49,1.31-.68,1.95l6.5,5.17c.4,.32,.96,.32,1.36,0Z"/><path class="uuid-c73c254c-cab5-492d-ab57-86e3f0808c88" d="M20.48,.24l-6.5,5.17c-.81,.65-.36,1.95,.68,1.95h13.01c1.04,0,1.49-1.31,.68-1.95L21.84,.24c-.4-.32-.96-.32-1.36,0Z"/><rect class="uuid-c73c254c-cab5-492d-ab57-86e3f0808c88" x="17.64" y="3.68" width="7.03" height="34.59"/><path class="uuid-c73c254c-cab5-492d-ab57-86e3f0808c88" d="M.24,20.48l5.17-6.5c.65-.81,1.95-.36,1.95,.68v13.01c0,1.04-1.31,1.49-1.95,.68L.24,21.84c-.32-.4-.32-.96,0-1.36Z"/><path class="uuid-c73c254c-cab5-492d-ab57-86e3f0808c88" d="M42.08,21.84l-5.17,6.5c-.65,.81-1.95,.36-1.95-.68V14.65c0-1.04,1.31-1.49,1.95-.68l5.17,6.5c.32,.4,.32,.96,0,1.36Z"/><rect class="uuid-c73c254c-cab5-492d-ab57-86e3f0808c88" x="17.82" y="3.86" width="7.03" height="34.59" transform="translate(.18 42.5) rotate(-90)"/></g></svg>