<?xml version="1.0" encoding="UTF-8"?><svg id="uuid-1c53d485-7b50-4476-aea8-1e1ca58884a6" xmlns="http://www.w3.org/2000/svg" viewBox="0 0 49.28 30.59"><defs><style>.uuid-68448400-a11f-4e21-a46a-5a7645e98610{fill:#fff;}.uuid-22f7dfb3-d7f4-4b7d-a426-2f81e63c9645{fill:#e74c3c;stroke:#e74c3c;stroke-miterlimit:10;stroke-width:2px;}.uuid-1ad44da9-958f-4b76-b920-f17de7d1f345{fill:none;}</style></defs><g id="uuid-6cd5a32b-1644-4b6b-8dfe-ca6aeb904977"><path class="uuid-68448400-a11f-4e21-a46a-5a7645e98610" d="m18.59.37l-9.5,6.32c-.09,0-.17-.03-.26-.03H2.45C1.11,6.67.01,7.77.01,9.11v12.38c0,1.34,1.1,2.44,2.44,2.44h6.38c.09,0,.18-.02.26-.03l9.5,6.32c1.48.98,3.45-.08,3.45-1.85V2.22c0-1.77-1.97-2.83-3.45-1.85Z"/><path class="uuid-22f7dfb3-d7f4-4b7d-a426-2f81e63c9645" d="m38.81,18.82c-1.18-1.18-2.35-2.35-3.53-3.53.8-.8,1.6-1.6,2.41-2.41.37-.37.75-.75,1.12-1.12.53-.53.53-1.42,0-1.94-.53-.53-1.42-.53-1.94,0-1.18,1.18-2.35,2.35-3.53,3.53-.8-.8-1.6-1.6-2.41-2.41-.37-.37-.75-.75-1.12-1.12-.53-.53-1.42-.53-1.94,0-.53.53-.53,1.42,0,1.94,1.18,1.18,2.35,2.35,3.53,3.53-.8.8-1.6,1.6-2.41,2.41-.37.37-.75.75-1.12,1.12-.53.53-.53,1.42,0,1.94.53.53,1.42.53,1.94,0,1.18-1.18,2.35-2.35,3.53-3.53.8.8,1.6,1.6,2.41,2.41.37.37.75.75,1.12,1.12.53.53,1.42.53,1.94,0s.53-1.42,0-1.94Z"/><rect class="uuid-1ad44da9-958f-4b76-b920-f17de7d1f345" width="49.28" height="30.59"/></g></svg>