<?xml version="1.0" encoding="UTF-8"?><svg id="uuid-d09a43b0-b50e-481e-b9be-390d0df888f6" xmlns="http://www.w3.org/2000/svg" viewBox="0 0 49.28 30.59"><defs><style>.uuid-0609e87c-3268-4bee-aa5e-dc842c7c04d2,.uuid-1324be0b-e56d-4638-8b52-8795493ca7a1{fill:#fff;}.uuid-1324be0b-e56d-4638-8b52-8795493ca7a1{stroke:#fff;stroke-miterlimit:10;stroke-width:2px;}.uuid-b68ed86e-db58-46cf-9200-05ea958b6d26{fill:none;}</style></defs><g id="uuid-411dfd3b-3e2e-40ab-a297-c200025caf23"><path class="uuid-0609e87c-3268-4bee-aa5e-dc842c7c04d2" d="M18.59,.37L9.09,6.7c-.09,0-.17-.03-.26-.03H2.45C1.11,6.67,.01,7.77,.01,9.11v12.38c0,1.34,1.1,2.44,2.44,2.44h6.38c.09,0,.18-.02,.26-.03l9.5,6.32c1.48,.98,3.45-.08,3.45-1.85V2.22c0-1.77-1.97-2.83-3.45-1.85Z"/><path class="uuid-1324be0b-e56d-4638-8b52-8795493ca7a1" d="M48.1,15.32c-.08,5.17-1.86,9.66-5.4,13.43-.18,.19-.38,.38-.6,.52-.53,.33-1.25,.18-1.65-.3-.42-.51-.4-1.19,.04-1.72,.61-.72,1.28-1.41,1.83-2.17,4.69-6.57,4.1-15.39-1.4-21.3-.12-.12-.24-.25-.35-.37-.55-.6-.56-1.37-.04-1.89,.53-.53,1.36-.51,1.93,.07,2.02,2.03,3.52,4.4,4.49,7.1,.77,2.14,1.16,4.35,1.15,6.63Z"/><path class="uuid-1324be0b-e56d-4638-8b52-8795493ca7a1" d="M39.98,15.32c-.07,3.84-1.38,7.18-4.05,9.96-.64,.67-1.44,.73-2,.17-.56-.55-.51-1.34,.13-2.01,4.38-4.62,4.4-11.61,.04-16.25-.42-.44-.68-.91-.49-1.53,.3-.99,1.51-1.21,2.29-.41,1.4,1.43,2.45,3.08,3.16,4.95,.62,1.65,.94,3.35,.93,5.12Z"/><path class="uuid-1324be0b-e56d-4638-8b52-8795493ca7a1" d="M31.85,15.86c-.02,1.93-.89,4.11-2.66,5.92-.46,.47-1.02,.56-1.56,.3-.5-.25-.81-.8-.69-1.37,.06-.28,.22-.57,.41-.78,2.51-2.81,2.52-6.42,0-9.25-.56-.62-.57-1.42-.04-1.93,.57-.54,1.35-.49,1.97,.15,1.63,1.66,2.56,3.97,2.57,6.97Z"/><rect class="uuid-b68ed86e-db58-46cf-9200-05ea958b6d26" width="49.28" height="30.59"/></g></svg>