<?xml version="1.0" encoding="UTF-8"?><svg id="uuid-e5f720ae-0b81-4510-bcaf-4bdc95bc4bde" xmlns="http://www.w3.org/2000/svg" viewBox="0 0 49.28 30.59"><defs><style>.uuid-9d61d169-4447-4e6b-8104-6ef6109d2a60,.uuid-f964dfb2-0356-4469-97f7-b25f6d1531da{fill:#fff;}.uuid-f964dfb2-0356-4469-97f7-b25f6d1531da{stroke:#fff;stroke-miterlimit:10;stroke-width:2px;}.uuid-b6d62a85-6432-4ec0-bcfc-77b7ad01823a{fill:none;}</style></defs><g id="uuid-27fc2ea9-bcfa-469b-8dfc-57b25364ce2e"><path class="uuid-9d61d169-4447-4e6b-8104-6ef6109d2a60" d="M18.59,.37L9.09,6.7c-.09,0-.17-.03-.26-.03H2.45C1.11,6.67,.01,7.77,.01,9.11v12.38c0,1.34,1.1,2.44,2.44,2.44h6.38c.09,0,.18-.02,.26-.03l9.5,6.32c1.48,.98,3.45-.08,3.45-1.85V2.22c0-1.77-1.97-2.83-3.45-1.85Z"/><path class="uuid-f964dfb2-0356-4469-97f7-b25f6d1531da" d="M39.98,15.32c-.07,3.84-1.38,7.18-4.05,9.96-.64,.67-1.44,.73-2,.17-.56-.55-.51-1.34,.13-2.01,4.38-4.62,4.4-11.61,.04-16.25-.42-.44-.68-.91-.49-1.53,.3-.99,1.51-1.21,2.29-.41,1.4,1.43,2.45,3.08,3.16,4.95,.62,1.65,.94,3.35,.93,5.12Z"/><path class="uuid-f964dfb2-0356-4469-97f7-b25f6d1531da" d="M31.85,15.86c-.02,1.93-.89,4.11-2.66,5.92-.46,.47-1.02,.56-1.56,.3-.5-.25-.81-.8-.69-1.37,.06-.28,.22-.57,.41-.78,2.51-2.81,2.52-6.42,0-9.25-.56-.62-.57-1.42-.04-1.93,.57-.54,1.35-.49,1.97,.15,1.63,1.66,2.56,3.97,2.57,6.97Z"/><rect class="uuid-b6d62a85-6432-4ec0-bcfc-77b7ad01823a" width="49.28" height="30.59"/></g></svg>