<?xml version="1.0" encoding="UTF-8"?><svg id="uuid-cbd69fb2-bf27-4ad9-9672-fe2c0c331625" xmlns="http://www.w3.org/2000/svg" viewBox="0 0 49.28 30.59"><defs><style>.uuid-e940fce8-85d0-458f-ada6-e3413cf73529,.uuid-37e4f92e-b014-4043-aa65-0d014a89d5a5{fill:#fff;}.uuid-37e4f92e-b014-4043-aa65-0d014a89d5a5{stroke:#fff;stroke-miterlimit:10;stroke-width:2px;}.uuid-1a23e5e6-42b2-470a-ab71-178847005f08{fill:none;}</style></defs><g id="uuid-484b702c-0bf6-47b6-be89-df53f09b2c54"><path class="uuid-e940fce8-85d0-458f-ada6-e3413cf73529" d="M18.59,.37L9.09,6.7c-.09,0-.17-.03-.26-.03H2.45C1.11,6.67,.01,7.77,.01,9.11v12.38c0,1.34,1.1,2.44,2.44,2.44h6.38c.09,0,.18-.02,.26-.03l9.5,6.32c1.48,.98,3.45-.08,3.45-1.85V2.22c0-1.77-1.97-2.83-3.45-1.85Z"/><path class="uuid-37e4f92e-b014-4043-aa65-0d014a89d5a5" d="M31.85,15.86c-.02,1.93-.89,4.11-2.66,5.92-.46,.47-1.02,.56-1.56,.3-.5-.25-.81-.8-.69-1.37,.06-.28,.22-.57,.41-.78,2.51-2.81,2.52-6.42,0-9.25-.56-.62-.57-1.42-.04-1.93,.57-.54,1.35-.49,1.97,.15,1.63,1.66,2.56,3.97,2.57,6.97Z"/><rect class="uuid-1a23e5e6-42b2-470a-ab71-178847005f08" y="0" width="49.28" height="30.59"/></g></svg>