<?xml version="1.0" encoding="UTF-8"?><svg id="uuid-576f6480-855e-46f0-9983-66850ce1adfe" xmlns="http://www.w3.org/2000/svg" viewBox="0 0 32.99 32.99"><defs><style>.uuid-6db8fafe-1d1d-471d-8547-6a7df41a2129{fill:#fff;}</style></defs><g id="uuid-6350e0a0-ddf4-436c-a266-e2da2888f964"><path class="uuid-6db8fafe-1d1d-471d-8547-6a7df41a2129" d="M28.49,16.51c-.06,4.97-3.15,9.64-7.92,11.3s-10.11,.25-13.37-3.65-3.61-9.6-.99-13.91,7.59-6.5,12.41-5.58c5.7,1.09,9.79,6.04,9.86,11.83,.03,2.89,4.54,2.9,4.5,0-.08-6.95-4.39-13.09-10.91-15.53S8.11,.67,3.81,5.93-1.31,19.03,2.33,25.04s10.67,8.98,17.5,7.65c7.64-1.49,13.07-8.5,13.17-16.17,.04-2.9-4.46-2.9-4.5,0Z"/><path class="uuid-6db8fafe-1d1d-471d-8547-6a7df41a2129" d="M18.2,16.51v-5.09c0-.9-.79-1.77-1.72-1.72s-1.72,.76-1.72,1.72v5.09c0,.9,.79,1.77,1.72,1.72s1.72-.76,1.72-1.72h0Z"/><path class="uuid-6db8fafe-1d1d-471d-8547-6a7df41a2129" d="M15.26,17.73l1.9,1.9,.27,.27c.31,.31,.78,.51,1.22,.51,.24,0,.46-.04,.66-.15,.21-.07,.4-.19,.56-.36,.3-.33,.53-.76,.51-1.22s-.18-.89-.51-1.22l-1.9-1.9-.27-.27c-.31-.31-.78-.51-1.22-.51-.24,0-.46,.04-.66,.15-.21,.07-.4,.19-.56,.36-.3,.33-.53,.76-.51,1.22s.18,.89,.51,1.22h0Z"/></g></svg>